<svg width="210" height="92" viewBox="0 0 210 92" fill="none" xmlns="http://www.w3.org/2000/svg">
<path d="M179.527 0H54.1182C46.0213 0 38.54 4.30447 34.4915 11.2889L1.91452 71.3544C-3.5253 80.7413 3.2749 92.474 14.1528 92.474H68.6233C80.9579 92.474 92.3397 85.8717 98.4297 75.1842L118.29 40.1676L144.404 78.2875C150.484 87.162 160.572 92.4723 171.357 92.4723H191.345L166.151 58.9019H175.093C186.961 58.9019 197.941 52.632 203.938 42.4278C217.653 19.0925 206.669 0 179.527 0ZM169.018 39.9054H118.44L74.9953 39.9037C69.3336 39.9123 66.0814 42.7653 63.2712 47.6576L57.2191 58.6809H80.8857L78.0497 63.4771C75.7468 67.3686 71.5522 69.7574 67.0187 69.7574H38.1582L57.0179 35.5341C59.5237 31.1834 64.107 28.3337 69.1427 28.3337L117.129 28.0664L117.143 28.0441H171.662C180.49 28.1332 177.943 40.0014 169.018 39.9054Z" fill="white" fill-opacity="0.21"/>
</svg>
