<svg width="334" height="60" viewBox="0 0 334 60" fill="none" xmlns="http://www.w3.org/2000/svg">
<path d="M54.5504 38.5505L48.3004 49.3755C47.0754 51.5255 44.8004 52.6505 42.5004 52.5005H37.5004V57.5005L31.2504 46.2505L37.5004 35.0005V40.0005H44.5504L39.0004 30.3755L49.8254 24.1255L54.3254 31.9255C55.6254 33.8505 55.8004 36.4255 54.5504 38.5505ZM23.0254 7.65051H35.5254C37.9754 7.65051 40.1004 9.07551 41.1254 11.1255L43.6254 15.4755L47.9504 12.9755L41.3504 24.0005L28.4754 24.2255L32.8004 21.7255L29.2754 15.6005L23.7504 25.2255L12.9004 18.9755L17.4004 11.1755C18.4254 9.10051 20.5504 7.65051 23.0254 7.65051ZM12.6254 49.4005L6.37539 38.5755C5.15039 36.4505 5.32539 33.9005 6.60039 31.9755L9.10039 27.6505L4.77539 25.1505L17.6254 25.3505L24.2504 36.4005L19.9254 33.9005L16.4004 40.0005H27.5004V52.5005H18.5004C17.3292 52.5853 16.1576 52.3397 15.119 51.7917C14.0805 51.2436 13.2165 50.4152 12.6254 49.4005Z" fill="white"/>
<path d="M75.6886 27.7914C75.8181 27.4029 76.1095 27.079 76.5629 26.82C77.0162 26.561 77.5829 26.4314 78.2629 26.4314C78.9429 26.4314 79.5419 26.561 80.06 26.82C82.3914 25.0067 83.5571 22.4648 83.5571 19.1943C83.5571 17.1219 82.9419 15.6162 81.7114 14.6771C80.481 13.7057 78.5705 13.22 75.98 13.22C71.9648 13.22 68.581 13.8514 65.8286 15.1143C63.0762 16.3448 61.7 17.8667 61.7 19.68C61.7 20.4248 62.0076 21.0238 62.6229 21.4771C63.2705 21.9305 63.9343 22.2219 64.6143 22.3514C64.6467 22.6429 64.6629 22.999 64.6629 23.42C64.6629 25.1686 64.3714 26.4638 63.7886 27.3057C62.2667 27.1114 60.8905 26.4476 59.66 25.3143C58.4295 24.181 57.8143 22.5457 57.8143 20.4086C57.8143 17.041 59.6762 14.3695 63.4 12.3943C67.1562 10.419 71.9324 9.43142 77.7286 9.43142C82.359 9.43142 86.0181 10.2409 88.7057 11.86C91.3933 13.479 92.7371 15.8429 92.7371 18.9514C92.7371 21.1533 91.8791 23.1286 90.1629 24.8771C88.479 26.6257 86.439 28.0667 84.0429 29.2C85.2086 30.3333 86.8276 33.4743 88.9 38.6229C90.9724 43.7714 92.5914 46.3457 93.7571 46.3457C93.9838 46.3457 94.2914 46.281 94.68 46.1514L95.6029 48.7257C93.6924 50.021 91.539 50.6686 89.1429 50.6686C86.779 50.6686 85.0629 50.1505 83.9943 49.1143C82.9581 48.0781 82.0676 45.941 81.3229 42.7029C81.1933 42.1524 80.9829 41.1324 80.6914 39.6429C79.9467 36.1133 79.3476 33.6038 78.8943 32.1143H78.0686C77.2267 32.1143 76.5143 31.7743 75.9314 31.0943C75.6724 30.9 75.5429 30.3981 75.5429 29.5886C75.5429 28.7467 75.5914 28.1476 75.6886 27.7914ZM67.3343 20.8457C67.3343 20.2305 67.2533 19.7771 67.0914 19.4857C66.9619 19.1943 66.6543 18.7733 66.1686 18.2229V17.64C66.8162 17.2514 67.8686 16.9114 69.3257 16.62C70.7829 16.2962 72.0619 16.1343 73.1629 16.1343C74.9438 16.1343 76.1257 16.2152 76.7086 16.3771C76.9029 16.701 77 17.3648 77 18.3686C77 19.3724 76.1581 23.0962 74.4743 29.54C72.8229 35.9514 71.8514 40.76 71.56 43.9657C69.2286 44.5162 66.6057 44.7914 63.6914 44.7914C62.9143 44.7914 62.38 44.7429 62.0886 44.6457C62.2505 42.6381 63.1571 38.639 64.8086 32.6486C66.4924 26.6581 67.3343 22.7238 67.3343 20.8457ZM93.6528 35.7086C93.6528 31.6933 94.8671 28.5686 97.2956 26.3343C99.7566 24.1 102.784 22.9829 106.379 22.9829C108.872 22.9829 110.863 23.5333 112.353 24.6343C113.875 25.7029 114.636 27.1438 114.636 28.9571C114.636 30.2848 114.231 31.4667 113.421 32.5029C112.612 33.539 111.624 34.3324 110.459 34.8829C107.998 35.9838 105.86 36.6476 104.047 36.8743L102.833 37.02C103.189 39.1571 104.258 40.2257 106.039 40.2257C106.816 40.2257 107.674 40.0638 108.613 39.74C109.552 39.3838 110.297 39.0276 110.847 38.6714L111.673 38.1857L113.227 40.2743C113.227 40.2743 113.049 40.4524 112.693 40.8086C112.499 41.0029 112.029 41.3914 111.284 41.9743C110.572 42.5248 109.811 43.0105 109.001 43.4314C108.224 43.8524 107.22 44.2248 105.99 44.5486C104.759 44.9048 103.529 45.0829 102.299 45.0829C99.5461 45.0829 97.409 44.2895 95.8871 42.7029C94.3976 41.0838 93.6528 38.7524 93.6528 35.7086ZM102.639 33.8143C103.578 33.6848 104.517 32.9238 105.456 31.5314C106.395 30.1067 106.864 28.9248 106.864 27.9857C106.864 27.0143 106.589 26.5286 106.039 26.5286C105.229 26.5286 104.484 27.16 103.804 28.4229C103.124 29.6857 102.736 31.4829 102.639 33.8143ZM127.534 26.2371C126.53 26.2371 125.672 27.1276 124.959 28.9086C124.247 30.6895 123.891 32.4867 123.891 34.3C123.891 38.2829 125.04 40.2743 127.339 40.2743C128.796 40.2743 130.448 39.5781 132.294 38.1857L133.848 40.3229C132.488 41.8124 130.853 42.9781 128.942 43.82C127.064 44.6619 125.186 45.0829 123.308 45.0829C120.782 45.0829 118.726 44.3219 117.139 42.8C115.585 41.2457 114.808 38.9143 114.808 35.8057C114.808 32.0495 115.957 28.9733 118.256 26.5771C120.588 24.181 123.632 22.9829 127.388 22.9829C129.816 22.9829 131.727 23.4848 133.119 24.4886C134.512 25.46 135.208 26.7067 135.208 28.2286C135.208 29.7181 134.755 31.0133 133.848 32.1143C132.779 32.1143 131.614 31.92 130.351 31.5314C129.12 31.1105 128.133 30.5924 127.388 29.9771L128.116 26.3343C127.922 26.2695 127.728 26.2371 127.534 26.2371ZM158.66 23.3229H159.048C158.886 24.1648 158.611 25.9781 158.222 28.7629C157.348 35.1095 156.409 39.9019 155.405 43.14C152.912 51.3 148.913 55.38 143.408 55.38C141.757 55.38 140.413 55.0238 139.377 54.3114C138.373 53.6314 137.871 52.7248 137.871 51.5914C137.871 50.4905 138.13 49.5676 138.648 48.8229C139.199 48.1105 139.976 47.5114 140.98 47.0257C142.696 46.1838 144.801 45.4876 147.294 44.9371C147.553 43.7067 147.715 42.9133 147.78 42.5571C145.254 43.9171 142.858 44.5971 140.591 44.5971C137.482 44.5971 135.928 43.0752 135.928 40.0314C135.928 38.9629 136.284 36.8743 136.997 33.7657C137.709 30.6248 138.065 28.4552 138.065 27.2571C138.065 26.059 137.984 25.1686 137.822 24.5857C141.643 23.7762 144.606 23.3714 146.711 23.3714C146.97 23.76 147.1 24.5371 147.1 25.7029C147.1 26.8362 146.727 29.0543 145.982 32.3571C145.27 35.66 144.914 37.6029 144.914 38.1857C144.914 39.1895 145.4 39.6914 146.371 39.6914C146.921 39.6914 147.553 39.5457 148.265 39.2543C148.524 37.6029 148.881 35.0933 149.334 31.7257C149.82 28.3257 150.16 25.9943 150.354 24.7314C151.196 24.3429 152.459 24.019 154.142 23.76C155.859 23.4686 157.364 23.3229 158.66 23.3229ZM141.32 50.6686C141.32 51.4133 141.805 51.7857 142.777 51.7857C143.262 51.7857 143.894 51.4457 144.671 50.7657C145.481 50.1181 146.128 49.1467 146.614 47.8514C143.084 48.4667 141.32 49.4057 141.32 50.6686ZM172.642 26.2371C171.639 26.2371 170.781 27.1276 170.068 28.9086C169.356 30.6895 169 32.4867 169 34.3C169 38.2829 170.149 40.2743 172.448 40.2743C173.905 40.2743 175.557 39.5781 177.402 38.1857L178.957 40.3229C177.597 41.8124 175.962 42.9781 174.051 43.82C172.173 44.6619 170.295 45.0829 168.417 45.0829C165.891 45.0829 163.835 44.3219 162.248 42.8C160.694 41.2457 159.917 38.9143 159.917 35.8057C159.917 32.0495 161.066 28.9733 163.365 26.5771C165.697 24.181 168.741 22.9829 172.497 22.9829C174.925 22.9829 176.836 23.4848 178.228 24.4886C179.621 25.46 180.317 26.7067 180.317 28.2286C180.317 29.7181 179.863 31.0133 178.957 32.1143C177.888 32.1143 176.722 31.92 175.46 31.5314C174.229 31.1105 173.242 30.5924 172.497 29.9771L173.225 26.3343C173.031 26.2695 172.837 26.2371 172.642 26.2371ZM194.103 41.78C193.066 42.6867 191.706 43.4638 190.023 44.1114C188.339 44.759 186.801 45.0829 185.408 45.0829C184.048 45.0829 182.931 44.6943 182.057 43.9171C181.183 43.1076 180.746 41.9581 180.746 40.4686C180.746 38.979 181.555 34.8343 183.174 28.0343C184.826 21.2019 185.651 16.1343 185.651 12.8314C185.651 12.119 185.554 11.2124 185.36 10.1114C188.404 9.26952 191.35 8.84857 194.2 8.84857C194.491 9.36666 194.637 10.2086 194.637 11.3743C194.637 13.5762 193.811 18.3848 192.16 25.8C190.541 33.1829 189.731 37.441 189.731 38.5743C189.731 39.7076 189.926 40.2743 190.314 40.2743C190.638 40.2743 191.334 40.0638 192.403 39.6429L192.937 39.4L194.103 41.78ZM194.922 35.7086C194.922 31.6933 196.137 28.5686 198.565 26.3343C201.026 24.1 204.054 22.9829 207.648 22.9829C210.141 22.9829 212.133 23.5333 213.622 24.6343C215.144 25.7029 215.905 27.1438 215.905 28.9571C215.905 30.2848 215.5 31.4667 214.691 32.5029C213.881 33.539 212.894 34.3324 211.728 34.8829C209.267 35.9838 207.13 36.6476 205.317 36.8743L204.102 37.02C204.459 39.1571 205.527 40.2257 207.308 40.2257C208.085 40.2257 208.943 40.0638 209.882 39.74C210.821 39.3838 211.566 39.0276 212.117 38.6714L212.942 38.1857L214.497 40.2743C214.497 40.2743 214.319 40.4524 213.962 40.8086C213.768 41.0029 213.299 41.3914 212.554 41.9743C211.841 42.5248 211.08 43.0105 210.271 43.4314C209.494 43.8524 208.49 44.2248 207.259 44.5486C206.029 44.9048 204.799 45.0829 203.568 45.0829C200.816 45.0829 198.679 44.2895 197.157 42.7029C195.667 41.0838 194.922 38.7524 194.922 35.7086ZM203.908 33.8143C204.847 33.6848 205.786 32.9238 206.725 31.5314C207.664 30.1067 208.134 28.9248 208.134 27.9857C208.134 27.0143 207.859 26.5286 207.308 26.5286C206.499 26.5286 205.754 27.16 205.074 28.4229C204.394 29.6857 204.005 31.4829 203.908 33.8143ZM240.266 24.8286C239.586 26.9333 239.003 29.4429 238.517 32.3571C238.032 35.239 237.789 37.2629 237.789 38.4286C237.789 39.5619 237.967 40.1286 238.323 40.1286L240.752 39.4486L241.626 41.8771C240.59 42.6867 239.262 43.4314 237.643 44.1114C236.057 44.759 234.648 45.0829 233.417 45.0829C231.313 45.0829 229.985 44.1762 229.435 42.3629C226.877 44.1762 224.61 45.0829 222.635 45.0829C220.692 45.0829 219.186 44.3705 218.117 42.9457C217.049 41.521 216.515 39.481 216.515 36.8257C216.515 33.1667 217.454 29.9448 219.332 27.16C221.21 24.3752 223.687 22.9829 226.763 22.9829C228.447 22.9829 230.163 23.4524 231.912 24.3914C232.171 23.8086 232.381 23.3876 232.543 23.1286C234.875 23.1286 237.449 23.6952 240.266 24.8286ZM225.646 36.2429C225.646 37.8619 225.759 38.8819 225.986 39.3029C226.213 39.7238 226.634 39.9343 227.249 39.9343C227.864 39.9343 228.463 39.6914 229.046 39.2057C229.176 35.4495 229.791 31.5152 230.892 27.4029C230.406 27.1114 229.839 26.9657 229.192 26.9657C228.577 26.9657 228.01 27.3219 227.492 28.0343C227.006 28.7467 226.634 29.6371 226.375 30.7057C225.889 32.7457 225.646 34.5914 225.646 36.2429ZM243.29 44.7914H242.901C242.804 44.3381 242.755 43.6419 242.755 42.7029C242.755 41.7314 243.144 39.2543 243.921 35.2714C244.731 31.2562 245.135 28.9895 245.135 28.4714C245.135 27.921 244.99 27.3705 244.698 26.82C244.407 26.2371 244.115 25.8 243.824 25.5086L243.387 25.0714L243.484 24.3429C245.427 23.7276 248.649 23.42 253.15 23.42C253.571 24.2295 253.83 25.1848 253.927 26.2857C255.902 24.0838 257.651 22.9829 259.172 22.9829C261.148 22.9829 262.232 24.6505 262.427 27.9857C262.362 28.0505 262.281 28.1638 262.184 28.3257C262.087 28.4552 261.86 28.6981 261.504 29.0543C261.148 29.4105 260.775 29.7343 260.387 30.0257C259.286 30.7705 258.12 31.2076 256.89 31.3371C256.857 31.3371 256.631 30.981 256.21 30.2686C255.821 29.5562 255.481 29.2 255.19 29.2C254.931 29.2 254.429 29.4914 253.684 30.0743C253.587 30.6571 253.392 31.6448 253.101 33.0371C252.842 34.4295 252.632 35.579 252.47 36.4857C251.984 38.8819 251.741 40.8895 251.741 42.5086L251.79 43.9657C250.365 44.5162 247.532 44.7914 243.29 44.7914ZM262.456 44.7914H261.63C261.63 42.7838 262.084 39.74 262.99 35.66C263.929 31.58 264.399 29.2324 264.399 28.6171C264.399 28.0019 264.253 27.4029 263.962 26.82C263.67 26.2371 263.379 25.8 263.087 25.5086L262.65 25.0714L262.747 24.3429C264.658 23.7276 267.993 23.42 272.753 23.42C273.077 24.1648 273.304 24.9419 273.433 25.7514C276.38 23.9381 278.857 23.0314 280.865 23.0314C282.225 23.0314 283.293 23.4848 284.07 24.3914C284.847 25.2657 285.236 26.3343 285.236 27.5971C285.236 28.8276 284.88 30.819 284.167 33.5714C283.455 36.3238 283.099 38.121 283.099 38.9629C283.099 39.7724 283.212 40.1771 283.439 40.1771L286.013 39.4971L286.887 41.9257C285.851 42.7029 284.491 43.4314 282.807 44.1114C281.156 44.759 279.634 45.0829 278.242 45.0829C275.489 45.0829 274.113 43.6581 274.113 40.8086C274.113 39.5781 274.453 37.5705 275.133 34.7857C275.813 32.001 276.153 30.2686 276.153 29.5886C276.153 28.8762 275.926 28.52 275.473 28.52C274.89 28.52 274.113 28.8438 273.142 29.4914C273.012 30.0743 272.688 31.4829 272.17 33.7171C271.134 38.4124 270.616 41.7962 270.616 43.8686C269.029 44.4838 266.309 44.7914 262.456 44.7914ZM304.699 37.9429C304.699 39.9505 303.76 41.6505 301.882 43.0429C300.036 44.4029 297.867 45.0829 295.373 45.0829C292.88 45.0829 290.824 44.6619 289.205 43.82C287.618 42.9781 286.825 42.1848 286.825 41.44C286.825 40.6629 287.31 39.6914 288.282 38.5257C289.286 37.3276 290.306 36.6314 291.342 36.4371C292.831 37.2467 294.175 39.0438 295.373 41.8286C296.312 41.8286 296.782 41.521 296.782 40.9057C296.782 40.4524 296.652 40.0314 296.393 39.6429C296.134 39.2543 295.94 38.9467 295.81 38.72C295.681 38.4933 295.454 38.1857 295.13 37.7971C294.807 37.3762 294.564 37.0686 294.402 36.8743C293.592 35.9029 292.864 35.0124 292.216 34.2029C290.662 32.26 289.885 30.56 289.885 29.1029C289.885 27.6133 290.354 26.399 291.293 25.46C292.912 23.8086 295.292 22.9829 298.433 22.9829C300.409 22.9829 301.979 23.3714 303.145 24.1486C304.31 24.8933 304.893 26.0267 304.893 27.5486C304.893 29.0381 304.003 30.7543 302.222 32.6971C303.873 34.6076 304.699 36.3562 304.699 37.9429ZM301.445 29.0543C301.833 28.439 302.028 27.8886 302.028 27.4029C302.028 26.9171 301.817 26.5448 301.396 26.2857C300.975 26.0267 300.473 25.8971 299.89 25.8971C299.308 25.8971 298.854 26.0429 298.53 26.3343C298.239 26.5933 298.093 26.9495 298.093 27.4029C298.093 27.8562 298.79 28.86 300.182 30.4143C300.635 30.0905 301.056 29.6371 301.445 29.0543Z" fill="white"/>
</svg>
